PathFileType	4	(X/Y/Z)	C:\Users\chris\Documents\GitHub\baseballds\vids\pitch6_Sports2D\pitch6_Sports2D_m_person00.trc
DataRate	CameraRate	NumFrames	NumMarkers	Units	OrigDataRate	OrigDataStartFrame	OrigNumFrames
30	30	7	22	m	30	139	186
Frame#	Time	Hip			RHip			RKnee			RAnkle			RBigToe			RSmallToe			RHeel			LHip			LKnee			LAnkle			LBigToe			LSmallToe			LHeel			Neck			Head			Nose			RShoulder			RElbow			RWrist			LShoulder			LElbow			LWrist		
		X1	Y1	Z1	X2	Y2	Z2	X3	Y3	Z3	X4	Y4	Z4	X5	Y5	Z5	X6	Y6	Z6	X7	Y7	Z7	X8	Y8	Z8	X9	Y9	Z9	X10	Y10	Z10	X11	Y11	Z11	X12	Y12	Z12	X13	Y13	Z13	X14	Y14	Z14	X15	Y15	Z15	X16	Y16	Z16	X17	Y17	Z17	X18	Y18	Z18	X19	Y19	Z19	X20	Y20	Z20	X21	Y21	Z21	X22	Y22	Z22
139	4.633333333333333	4.561426766490355	0.7217979941332242	0.0	4.501403672286555	0.6635451623666648	0.0	4.719808169008553	0.43421576778037957	0.0	4.935076638476745	0.22397039957255988	0.0	5.037830456231222	0.18140472295614948	0.0	4.988810691902816	0.1457021572551129	0.0	4.961425240916082	0.18291512579753905	0.0	4.627590713212588	0.7717937595461517	0.0	4.850536309186827	0.5561600138362702	0.0	5.062120455326606	0.37814269668680717	0.0	5.212780773427758	0.413479817355653	0.0	5.198154162512125	0.425840403919103	0.0	5.07569171003869	0.3173776502394606	0.0	4.156801702878007	1.0320749969645122	0.0	4.019956487466556	1.198114468611673	0.0	4.149185875050973	1.1334692710823058	0.0	4.0800971357404014	0.8765882165973885	0.0	4.125340822816862	0.6627651369679072	0.0	4.349343072532492	0.6053200973430005	0.0	4.338362650514103	1.0526168715101882	0.0	4.455737478234915	0.926848039259343	0.0	4.583505389117621	0.8381816603361164	0.0
140	4.666666666666667	4.55210883744757	0.7191681524729293	0.0	4.490104876094138	0.6601753512562076	0.0	4.710647648483335	0.428633360750157	0.0	4.930702779290645	0.22004775551066472	0.0	5.018999465843659	0.16523756834544923	0.0	4.972636534130208	0.13426481642393995	0.0	4.958792884526541	0.18093449203566994	0.0	4.6181081939900785	0.7708597267374008	0.0	4.842218576569009	0.5522188638881879	0.0	5.0551464072210495	0.37330237103159675	0.0	5.2211761953515134	0.4250148942329008	0.0	5.196508395757406	0.4316617688343685	0.0	5.065976516111859	0.31316875538550104	0.0	4.145116766222791	1.0314862740091666	0.0	4.006667938575975	1.1955672975332237	0.0	4.135050228778912	1.1312008376474585	0.0	4.068701227225503	0.8724412042553245	0.0	4.115076568140917	0.6584525079574144	0.0	4.338945061269326	0.6033329328153423	0.0	4.327561718191867	1.0526264018219538	0.0	4.448276350553887	0.9285787800156072	0.0	4.569926458462893	0.8438888491889254	0.0
141	4.7	4.5405496052568575	0.7168963959981882	0.0	4.479277384173608	0.6571955793600751	0.0	4.699702271017256	0.4258765673686559	0.0	4.922713471727553	0.2182423885680558	0.0	5.007456306265096	0.15890020065003269	0.0	4.960407318703852	0.13027431573071452	0.0	4.9516068262660005	0.17985288999375154	0.0	4.606495025154885	0.7679888101437587	0.0	4.832010302451985	0.5490929315230871	0.0	5.046109062805687	0.3714015765773395	0.0	5.224207760993569	0.43586704176175134	0.0	5.192145936921068	0.4371374950413901	0.0	5.05740569439776	0.312032374457125	0.0	4.133794196448718	1.0298651499981866	0.0	3.9944605140288107	1.192635217020216	0.0	4.122092177492049	1.129519607708676	0.0	4.05696054303413	0.8674353934026148	0.0	4.10320503971442	0.6541075081246559	0.0	4.32695915448461	0.6000857033105648	0.0	4.315373132504948	1.0525358832720602	0.0	4.443516196705205	0.9345208506195689	0.0	4.56259439951797	0.851647874871941	0.0
142	4.733333333333333	4.527890554992201	0.715688408203291	0.0	4.466111906615023	0.6557747368153606	0.0	4.686854867139095	0.4242402232954694	0.0	4.9121735108603275	0.21559655316312656	0.0	4.996862414954139	0.15500833238252854	0.0	4.948326746424908	0.12711602608024875	0.0	4.942537485377992	0.17831912274347722	0.0	4.592546321237406	0.7656935306988536	0.0	4.81988347224049	0.5467437475574994	0.0	5.034627908372778	0.3693934505130695	0.0	5.216603291559033	0.4366044044410281	0.0	5.184360020603788	0.436966336660053	0.0	5.046671280079328	0.31047833641593897	0.0	4.122356148253352	1.0267197809379127	0.0	3.9819193639482497	1.190734630138167	0.0	4.110283229569549	1.126501516075866	0.0	4.044264124499374	0.8640037034309956	0.0	4.089415829475828	0.6497381170796674	0.0	4.314515526034232	0.5954372488344996	0.0	4.303408622092012	1.0514755224707437	0.0	4.439799426098082	0.9391444432280456	0.0	4.557157695395261	0.8547373299427226	0.0
143	4.766666666666667	4.514117828873901	0.7144510147906724	0.0	4.450117372373881	0.6554369967687532	0.0	4.673044251364985	0.42145986699754506	0.0	4.899545720430752	0.21165625601590368	0.0	4.9841627168064395	0.15224410068399216	0.0	4.934445137056795	0.12374504966472279	0.0	4.93208374508084	0.17632356560534432	0.0	4.576996863801772	0.7646733353168451	0.0	4.80659773176308	0.543971528866746	0.0	5.022220374493828	0.3645981069529287	0.0	5.2058927513228355	0.429909843798559	0.0	5.176932509094711	0.43251159609392015	0.0	5.033747534485698	0.30752754106070584	0.0	4.110694383164421	1.0226061224308096	0.0	3.9677473790951074	1.1893203855380599	0.0	4.099647000444961	1.1224962562394976	0.0	4.030712751662564	0.861679124403466	0.0	4.074829203324635	0.645806145836471	0.0	4.3021622436068085	0.5903184060856697	0.0	4.292670405388681	1.0493924633332028	0.0	4.4327440792341175	0.9383580520346443	0.0	4.548456717355306	0.8506196601679247	0.0
144	4.8	4.500673756249296	0.7110168643637744	0.0	4.435935788384096	0.6531396207401844	0.0	4.6608219249643605	0.41723519591835506	0.0	4.885797455034615	0.2078855303244242	0.0	4.972094517692896	0.1499860931291293	0.0	4.921415622383551	0.12134591967998123	0.0	4.91952190339135	0.17360681396760605	0.0	4.563444123321052	0.7628266051745549	0.0	4.794136534982854	0.540335193398393	0.0	5.010924302833476	0.3594933858657139	0.0	5.196459329480604	0.42431413806895735	0.0	5.167810888427802	0.42770962128571977	0.0	5.02171216422801	0.30489545745687174	0.0	4.099183634634623	1.018446636209736	0.0	3.953739222915177	1.1860854115558175	0.0	4.08934148919379	1.1193922479584644	0.0	4.017051153726208	0.8575698472088076	0.0	4.061625973500777	0.6421261936162511	0.0	4.289002198579638	0.5858768055316248	0.0	4.282055234496548	1.0463957473601981	0.0	4.42213859368606	0.9350981277536056	0.0	4.537494855516998	0.8454872188639472	0.0
145	4.833333333333333	4.488798785711103	0.7048372864314786	0.0	4.425552695772638	0.6473127937270747	0.0	4.650489232281695	0.4123732344652267	0.0	4.873653900188969	0.2043044049365111	0.0	4.962334131347446	0.14547479304238325	0.0	4.911549996344354	0.11793867988249163	0.0	4.907450980657784	0.16930359423844665	0.0	4.552931000660021	0.7587426058003878	0.0	4.782945991953836	0.5362046337855696	0.0	5.001163262387126	0.356429970320406	0.0	5.186626748783038	0.4232940848435487	0.0	5.154152907119685	0.4247349320788695	0.0	5.011950918635417	0.30216371932883834	0.0	4.086995321798112	1.014819069013193	0.0	3.9409089275273965	1.180693185769749	0.0	4.077281048561403	1.117513909131076	0.0	4.00390311913173	0.851739312770268	0.0	4.049920545524122	0.6378463468684936	0.0	4.275403528578073	0.582297045806837	0.0	4.269551780277654	1.0428080019032187	0.0	4.410575289488564	0.9336416174051793	0.0	4.526025942888561	0.8452668815172371	0.0
